<svg
  width="23"
  height="22"
  viewBox="0 0 23 22"
  fill="none"
  xmlns="http://www.w3.org/2000/svg"
>
  <path
    d="M19.9501 21.2593C21.3157 21.2593 22.4313 20.128 22.4313 18.7437C22.4313 17.0718 19.9501 14.3437 19.9501 14.3437C19.9501 14.3437 17.4688 17.0718 17.4688 18.7437C17.4688 20.128 18.5845 21.2593 19.9501 21.2593ZM8.16572 19.8812C8.3876 20.103 8.74697 20.103 8.96572 19.8812L16.9688 11.8812C17.1907 11.6593 17.1907 11.2999 16.9688 11.0812L8.96885 3.08116C8.9501 3.06241 8.92822 3.04366 8.90635 3.02803L6.4626 0.584284C6.40932 0.531688 6.33746 0.502197 6.2626 0.502197C6.18773 0.502197 6.11588 0.531688 6.0626 0.584284L4.5626 2.08428C4.51 2.13756 4.48051 2.20942 4.48051 2.28428C4.48051 2.35915 4.51 2.431 4.5626 2.48428L6.6626 4.58428L0.168848 11.0812C-0.0530273 11.303 -0.0530273 11.6624 0.168848 11.8812L8.16572 19.8812ZM8.56885 5.86241L14.1595 11.453H2.98135L8.56885 5.86241Z"
    fill="black"
  />
</svg>
